inDegrees=no
num_controls=7
num_derivatives=13
num_iterations=84
num_multipliers=7
num_parameters=0
num_slacks=7
num_states=26
objective=0.425736
objective_accelerations=0.058184
objective_balance=0.001351
objective_effort=0.014550
objective_height=0.345747
objective_ligament=0.005904
solver_duration=1231.643424
status=Solve_Succeeded
success=true
DataType=double
version=3
OpenSimVersion=4.5
endheader
time	/jointset/ground_pelvis/pelvis_tilt/value	/jointset/ground_pelvis/pelvis_tx/value	/jointset/ground_pelvis/pelvis_ty/value	/jointset/hip_l/hip_flexion_l/value	/jointset/hip_l/hip_adduction_l/value	/jointset/hip_l/hip_rotation_l/value	/jointset/back/lumbar_extension/value	/jointset/patellofemoral_l/patellar_flexion_l/value	/jointset/knee_l/knee_flexion_l/value	/jointset/knee_l/knee_adduction_l/value	/jointset/knee_l/knee_rotation_l/value	/jointset/ankle_l/ankle_angle_l/value	/jointset/subtalar_l/subtalar_angle_l/value	/jointset/ground_pelvis/pelvis_tilt/speed	/jointset/ground_pelvis/pelvis_tx/speed	/jointset/ground_pelvis/pelvis_ty/speed	/jointset/hip_l/hip_flexion_l/speed	/jointset/hip_l/hip_adduction_l/speed	/jointset/hip_l/hip_rotation_l/speed	/jointset/back/lumbar_extension/speed	/jointset/patellofemoral_l/patellar_flexion_l/speed	/jointset/knee_l/knee_flexion_l/speed	/jointset/knee_l/knee_adduction_l/speed	/jointset/knee_l/knee_rotation_l/speed	/jointset/ankle_l/ankle_angle_l/speed	/jointset/subtalar_l/subtalar_angle_l/speed	/forceset/tau_hip_flexion_l	/forceset/tau_hip_adduction_l	/forceset/tau_hip_rotation_l	/forceset/tau_knee_flexion_l	/forceset/tau_ankle_angle_l	/forceset/tau_subtalar_angle_l	/forceset/tau_lumbar_extension	lambda_cid13_p0	lambda_cid13_p1	lambda_cid13_p2	lambda_cid13_p3	lambda_cid13_p4	lambda_cid13_p5	lambda_cid14_p0	/jointset/ground_pelvis/pelvis_tilt/accel	/jointset/ground_pelvis/pelvis_tx/accel	/jointset/ground_pelvis/pelvis_ty/accel	/jointset/hip_l/hip_flexion_l/accel	/jointset/hip_l/hip_adduction_l/accel	/jointset/hip_l/hip_rotation_l/accel	/jointset/back/lumbar_extension/accel	/jointset/patellofemoral_l/patellar_flexion_l/accel	/jointset/knee_l/knee_flexion_l/accel	/jointset/knee_l/knee_adduction_l/accel	/jointset/knee_l/knee_rotation_l/accel	/jointset/ankle_l/ankle_angle_l/accel	/jointset/subtalar_l/subtalar_angle_l/accel	gamma_cid13_p0	gamma_cid13_p1	gamma_cid13_p2	gamma_cid13_p3	gamma_cid13_p4	gamma_cid13_p5	gamma_cid14_p0
0.5	-0.1976589172330251	0.03029116050626122	0.7734858129298967	0.9722392155648271	-0.3613403844389215	-0.006956454689773377	-0.3987489198034532	0.9603555257597005	0.9603555257597165	-0.02625937683663606	-0.1744297063998795	0.3148132578954401	0.1669059245614558	-0.7132210998613465	-0.1683093128404315	-0.5201259942555259	2.346795263699109	0.04046030638313281	0.517846769203385	-0.2990524310438245	1.995317453048775	1.995317453048432	0.3296525633731489	0.002086706631313667	0.5276476051371607	0.2785034444392973	-0.09030488939234958	0.0261119401595653	-0.002080712014234909	-0.214496283804698	0.01916191680042091	0.01635794118965524	0.1075496335791631	-17.95292122653244	-2.165291279314146	-1.986737689604321	-3.276483075365145	-437.6488726960737	-67.37306614927512	-4.810903901276629	0.1935150711759642	0.4113638667897198	-0.5130827022391861	-0.9535443652949436	0.07603431560982124	-0.7603927006813898	1.239521787440124	-1.416502995900137	-1.416502995900123	-0.1662157618068409	-0.01402088669270739	-0.8044865568611445	0.08809747624854943	-4.604402228247675e-07	1.959748488125235e-07	6.636924266981157e-06	4.206037219218164e-07	-1.278790244798463e-06	-9.211483493873241e-07	-7.70949247213346e-07
0.51	-0.2047795453437906	0.02862897394407209	0.7682600832250697	0.9956549731100244	-0.3609345662088729	-0.001809177664784502	-0.4016783139600136	0.9802347138972478	0.980234713897263	-0.02298136419854296	-0.1744088666006188	0.3200481040326393	0.1696909940695303	-0.7108026861660706	-0.1641014704356379	-0.5249102530992847	2.336056324480821	0.04070045982302597	0.511586572676343	-0.2868135032899156	1.980277472446508	1.980277472446047	0.3259343859324695	0.002071032814717525	0.5192692604566527	0.2784714186381973	-0.0944925314800172	0.02682311745108358	-0.002511960828433031	-0.2171962168967166	0.01817994554002767	0.01691273642954312	0.1107683973026571	-18.3967775170338	-2.206621071010935	-2.11939141709366	-3.313101573787221	-440.564232078245	-67.63543660187221	-4.189541905511093	0.2812565492132963	0.4295625534807775	-0.4448957121056922	-1.179107233736667	-0.003476771935465098	-0.5628947352523017	1.218012816111693	-1.583998170104873	-1.583998170122718	-0.4768398719919329	0.004400966095539564	-0.8623568381051939	-0.05556107136702637	-4.467133809760261e-07	3.968190276766225e-07	6.601611625098125e-06	4.443981796473449e-07	-1.233754035598284e-06	-6.184842991414866e-07	-7.603824252242991e-07
0.52	-0.2118729389115003	0.02700967943116231	0.7629897512844728	1.018954333556308	-0.3605266429704481	0.0032746850736211	-0.4044849319296863	0.9999562517132313	0.9999562517132431	-0.0197409775621919	-0.1743882352204839	0.3251975970401415	0.1724744016269781	-0.7077741912504006	-0.1597309029845618	-0.5290464414095326	2.323515843916899	0.04088130805834875	0.5051639118878311	-0.2744971936661936	1.963787388735642	1.963787388735062	0.3221273630200486	0.002045022807666769	0.5105769791977609	0.278171054313986	-0.09868017356772121	0.02753429474255504	-0.002943209642482043	-0.2198961499887457	0.01719797427962078	0.01746753166935794	0.113987161026124	-18.83506709624423	-2.256805890157235	-2.241628778213791	-3.399281790156366	-443.40520146132	-68.01092439134065	-3.616891301811163	0.3155313152547862	0.4439088760462331	-0.3834685955369241	-1.313852634421679	0.0641732746957724	-0.7928855529753824	1.25499816140276	-1.706523617620028	-1.706523617619983	-0.183984856155138	-0.01608812478361319	-0.8672738725378948	0.03442977162630652	-4.327487049259888e-07	4.579885905537267e-07	6.47654100809997e-06	4.456888810356125e-07	-1.177915404395476e-06	-3.652224664155592e-07	-7.538361682435117e-07
0.53	-0.2189328820553922	0.02543449361175397	0.7576813426990469	1.042119677458075	-0.3601170280572974	0.008293047900551425	-0.4071685053025049	1.019505623415371	1.019505623415392	-0.01653861827023319	-0.1743683797118934	0.3302580978976667	0.1752533998073653	-0.704104375157389	-0.1553208039000221	-0.5325216337306823	2.309287910613464	0.04104414309587061	0.4984448565906575	-0.262249731575079	1.945829052830919	1.945829052830961	0.3183617723295816	0.001889945590776	0.5014109220844802	0.277566028025202	-0.1034891858440053	0.02879934567018528	-0.003265931476833141	-0.2213857217693686	0.01394555484543098	0.01772199383894669	0.1174766202922619	-20.06011115541844	-2.08236196759221	-2.349924482419884	-2.547961978664927	-446.373332392754	-67.88173160118114	-3.091959134511931	0.409194344244939	0.4374682475947678	-0.3127279758566727	-1.517064550519321	-0.008295818680922815	-0.621701249718341	1.204782631333029	-1.879023326610106	-1.879023326516953	-0.4701702945901223	-0.0193959126829272	-0.9581052371432168	-0.118194149872623	-4.012064052162468e-07	7.19223070110337e-07	6.228367184603666e-06	4.640284623260816e-07	-1.097201269630445e-06	-1.969191588102644e-08	-7.103752095156072e-07
0.54	-0.2259528295207698	0.02390299034777848	0.7523415455053192	1.065134781852361	-0.3597059116811646	0.01324216302818509	-0.4097305715747397	1.038867704808522	1.038867704808557	-0.01337337970900144	-0.1743509106539834	0.3352235714627744	0.1780243026607162	-0.6997750555475576	-0.15099439189799	-0.5353241630699536	2.293467942421433	0.04118160065494045	0.4913143720282855	-0.2501957735492796	1.926329326937728	1.92632932693839	0.314703216875209	0.001567732672241184	0.4915715207143954	0.276551988906743	-0.1082981981203115	0.03006439659781655	-0.003588653311209003	-0.2228752935499937	0.01069313541124287	0.01797645600853834	0.1209660795583783	-21.28129137976149	-1.915499887989974	-2.449120447641744	-1.731243099065181	-449.2688607836307	-67.85886466872131	-2.613566746869946	0.4474320186187524	0.4271714595447074	-0.2489359991612336	-1.632259612140658	0.05909777900537209	-0.8751714060150587	1.216297348339724	-2.014801615313826	-2.01480161531388	-0.1625778089362664	-0.04951526511241825	-1.001942723898749	-0.04737279430867248	-3.502165218830016e-07	1.201805968120872e-06	5.843994068811538e-06	5.012306341466463e-07	-9.889653011369961e-07	4.279231735055814e-07	-6.260724531100407e-07
0.55	-0.2329267041742053	0.02241489643709531	0.7469771575944189	1.087983549780247	-0.3592931679063331	0.01811957597645789	-0.4121720297532529	1.058027471257171	1.058027471257258	-0.01024484270620157	-0.1743359667392717	0.3400884633561403	0.1807839591385307	-0.6949069839418625	-0.1465805857463826	-0.5374280088378198	2.275945852780839	0.0413416988342005	0.4842482421466098	-0.2380644043133009	1.905382890776216	1.905382890776509	0.3108597254139691	0.001441780172333995	0.4813963902359972	0.2753179766889973	-0.1122676505372475	0.03061161020336452	-0.003684504871266444	-0.226826315800208	0.01123776992148846	0.01789586286708683	0.124105630612506	-21.31846872809058	-1.652872179332967	-2.743560149643596	-2.232678806399942	-452.6141341078197	-67.93820540016803	-2.180327033529722	0.5204190095644734	0.4551601713545813	-0.1724833102512001	-1.863184046499292	-0.01030111566659659	-0.6108621898811837	1.216275387228522	-2.170609401098457	-2.17060940115373	-0.5167182780230769	0.01010887288107292	-1.026814797213748	-0.1715192504788066	-2.599368129760251e-07	5.417901502040076e-07	4.199731164155164e-06	3.133401607978991e-07	-7.405676357900681e-07	1.44580762815081e-07	-4.778292469511319e-07
0.5600000000000001	-0.2398491132559798	0.02097227558360545	0.7415954563369097	1.11064689673043	-0.3588797765403202	0.02292862194379009	-0.4144912305042064	1.076970564387296	1.076970564387439	-0.007159037310672552	-0.1743214335265051	0.3448513006272405	0.1835292547311735	-0.6894819412153876	-0.1418997804593283	-0.5387868323917575	2.256383746881029	0.04131111889133938	0.4776409758394415	-0.225744288037263	1.88299466323356	1.882994663233485	0.3061568954205217	0.001485592284865824	0.4711605962614617	0.2736798118724008	-0.1162371029541852	0.03115882380893635	-0.003780356431270622	-0.2307773380504175	0.01178240443174042	0.01781526972567011	0.1272451816666288	-21.35446476930155	-1.393810106921039	-3.033592244330269	-2.775390377734562	-455.9259195637025	-68.10439693287104	-1.790825896465556	0.5588262427746438	0.4805712866341132	-0.09993155637548728	-2.040262863983734	0.02096215458113317	-0.7833986911135848	1.254046756351575	-2.30315989154267	-2.303159891542741	-0.3344455153777586	-0.01556234262461798	-1.014075423126221	-0.1282033140788267	-1.225093133805724e-07	-1.48934412682569e-06	1.043600512861747e-06	-1.446614867540135e-07	-3.239759342189702e-07	-1.015910647967921e-06	-2.528575010882147e-07
0.5700000000000001	-0.2467146238790577	0.01957735029936703	0.7362039527076235	1.133105020324188	-0.3584664918061677	0.0276632756361067	-0.4166866265516308	1.095682250721597	1.095682250721723	-0.004114001318796985	-0.1743099759258379	0.3495111792717084	0.1862577784816055	-0.6835367933174802	-0.137083636519129	-0.5393832910688241	2.234943627749158	0.04133350298925743	0.4693650115400593	-0.2133399951041011	1.859070099606909	1.85907009960671	0.3027268661574489	0.0008593974770938559	0.4607391077285539	0.2719492343271597	-0.1207694365118903	0.03149941360728206	-0.003901286843798501	-0.2335468871944318	0.009830030156388577	0.01813062311548961	0.1306147805879644	-22.18076269873995	-1.295366642415466	-3.152913091918781	-2.394262839999276	-459.3743507755649	-68.56588146352479	-1.443448247872071	0.6248457617863989	0.4823011814716979	-0.01993032949123667	-2.240506599447749	-0.008698711016025732	-0.8385615802718666	1.232859513314998	-2.477955081018891	-2.47795508103737	-0.3661492167483396	-0.07836980975820064	-1.067714161546974	-0.2063344098618415	-4.398950364665759e-08	-2.53309607571608e-06	-6.922290312258781e-07	-3.885469217164344e-07	-8.655751054363125e-08	-1.609152217105851e-06	-1.235126932532613e-07
0.58	-0.253518185683459	0.01823061950128244	0.7308103990303432	1.155339818694296	-0.358053298280719	0.03231739642924661	-0.4187581318794207	1.11414652132307	1.114146521323184	-0.001107039136538555	-0.1743032246252331	0.3540645373122123	0.1889668265695621	-0.6770921774800711	-0.1322608832285607	-0.5391968419906393	2.211718702150936	0.04129287715064775	0.4615343960038245	-0.2009661441102833	1.833511516668559	1.833511516668237	0.2985421334953237	0.0005443322731344747	0.4498564754686891	0.2697846793773153	-0.1253017700695994	0.03184000340563507	-0.004022217256199109	-0.2363164363384406	0.007877655881038999	0.0184459765053193	0.1339843795092939	-23.00652130516451	-1.204345717144762	-3.262681787934594	-2.020406867624172	-462.8148176287513	-69.05703155873918	-1.136792739011872	0.658719830674939	0.4818931567079205	0.05664999467476941	-2.397224157253855	0.008360167275586434	-0.6943289384841463	1.247958368482745	-2.629963753882401	-2.629963753882397	-0.4853861951882452	0.04666357813788924	-1.106304168517614	-0.2149987949994921	-4.218668536032437e-08	-2.290954760052997e-06	-5.783641101153254e-07	-3.535833356320844e-07	-8.248103017438954e-08	-1.46364980642697e-06	-1.187052930826291e-07
